<mxfile host="Electron" modified="2024-03-17T22:06:36.851Z" agent="Mozilla/5.0 (X11; Linux x86_64) AppleWebKit/537.36 (KHTML, like Gecko) draw.io/24.0.4 Chrome/120.0.6099.109 Electron/28.1.0 Safari/537.36" etag="f_Gwg-ICsO4rG1AL4nYY" version="24.0.4" type="device">
  <diagram name="Página-1" id="MkZZTjGYwHf3h6-hp3L1">
    <mxGraphModel dx="1195" dy="725" grid="1" gridSize="10" guides="1" tooltips="1" connect="1" arrows="1" fold="1" page="1" pageScale="1" pageWidth="827" pageHeight="1169" math="0" shadow="0">
      <root>
        <mxCell id="0" />
        <mxCell id="1" parent="0" />
        <mxCell id="Eb2iAlWk6COwyuMoocbI-1" value="" style="rounded=0;whiteSpace=wrap;html=1;rotation=-180;direction=south;" parent="1" vertex="1">
          <mxGeometry x="250" y="90" width="130" height="230" as="geometry" />
        </mxCell>
        <mxCell id="Eb2iAlWk6COwyuMoocbI-2" value="" style="rounded=0;whiteSpace=wrap;html=1;rotation=-180;direction=south;" parent="1" vertex="1">
          <mxGeometry x="490" y="90" width="130" height="230" as="geometry" />
        </mxCell>
        <mxCell id="Eb2iAlWk6COwyuMoocbI-3" value="4" style="rounded=0;whiteSpace=wrap;html=1;" parent="1" vertex="1">
          <mxGeometry x="250" y="120" width="130" height="30" as="geometry" />
        </mxCell>
        <mxCell id="Eb2iAlWk6COwyuMoocbI-4" value="5" style="text;html=1;align=center;verticalAlign=middle;whiteSpace=wrap;rounded=0;" parent="1" vertex="1">
          <mxGeometry x="200" y="120" width="60" height="30" as="geometry" />
        </mxCell>
        <mxCell id="Eb2iAlWk6COwyuMoocbI-5" value="SYM1 -&amp;gt; hash value = 5" style="text;html=1;align=center;verticalAlign=middle;whiteSpace=wrap;rounded=0;" parent="1" vertex="1">
          <mxGeometry x="119" y="450" width="150" height="30" as="geometry" />
        </mxCell>
        <mxCell id="Eb2iAlWk6COwyuMoocbI-6" value="SYM3 -&amp;gt; hash value = 5" style="text;html=1;align=center;verticalAlign=middle;whiteSpace=wrap;rounded=0;" parent="1" vertex="1">
          <mxGeometry x="415" y="450" width="190" height="30" as="geometry" />
        </mxCell>
        <mxCell id="Eb2iAlWk6COwyuMoocbI-7" value="1 iteração" style="text;html=1;align=center;verticalAlign=middle;whiteSpace=wrap;rounded=0;" parent="1" vertex="1">
          <mxGeometry x="144" y="350" width="100" height="30" as="geometry" />
        </mxCell>
        <mxCell id="Eb2iAlWk6COwyuMoocbI-8" value="ptr = 1" style="text;html=1;align=center;verticalAlign=middle;whiteSpace=wrap;rounded=0;" parent="1" vertex="1">
          <mxGeometry x="164" y="390" width="60" height="30" as="geometry" />
        </mxCell>
        <mxCell id="Eb2iAlWk6COwyuMoocbI-9" value="next_ptr = 2" style="text;html=1;align=center;verticalAlign=middle;whiteSpace=wrap;rounded=0;" parent="1" vertex="1">
          <mxGeometry x="154" y="410" width="80" height="30" as="geometry" />
        </mxCell>
        <mxCell id="Eb2iAlWk6COwyuMoocbI-10" value="2 iteração" style="text;html=1;align=center;verticalAlign=middle;whiteSpace=wrap;rounded=0;" parent="1" vertex="1">
          <mxGeometry x="302" y="350" width="100" height="30" as="geometry" />
        </mxCell>
        <mxCell id="Eb2iAlWk6COwyuMoocbI-11" value="ptr = 2" style="text;html=1;align=center;verticalAlign=middle;whiteSpace=wrap;rounded=0;" parent="1" vertex="1">
          <mxGeometry x="322" y="390" width="60" height="30" as="geometry" />
        </mxCell>
        <mxCell id="Eb2iAlWk6COwyuMoocbI-12" value="next_ptr = 3" style="text;html=1;align=center;verticalAlign=middle;whiteSpace=wrap;rounded=0;" parent="1" vertex="1">
          <mxGeometry x="312" y="410" width="80" height="30" as="geometry" />
        </mxCell>
        <mxCell id="Eb2iAlWk6COwyuMoocbI-13" value="SYM1" style="rounded=0;whiteSpace=wrap;html=1;" parent="1" vertex="1">
          <mxGeometry x="490" y="120" width="130" height="30" as="geometry" />
        </mxCell>
        <mxCell id="Eb2iAlWk6COwyuMoocbI-14" value="1" style="text;html=1;align=center;verticalAlign=middle;whiteSpace=wrap;rounded=0;" parent="1" vertex="1">
          <mxGeometry x="450" y="120" width="60" height="30" as="geometry" />
        </mxCell>
        <mxCell id="Eb2iAlWk6COwyuMoocbI-15" value="" style="endArrow=classic;html=1;rounded=0;exitX=1;exitY=0.5;exitDx=0;exitDy=0;" parent="1" source="Eb2iAlWk6COwyuMoocbI-13" edge="1">
          <mxGeometry width="50" height="50" relative="1" as="geometry">
            <mxPoint x="650" y="160" as="sourcePoint" />
            <mxPoint x="670" y="135" as="targetPoint" />
          </mxGeometry>
        </mxCell>
        <mxCell id="Eb2iAlWk6COwyuMoocbI-17" value="Link = 0;" style="text;html=1;align=center;verticalAlign=middle;whiteSpace=wrap;rounded=0;" parent="1" vertex="1">
          <mxGeometry x="586" y="110" width="130" height="30" as="geometry" />
        </mxCell>
        <mxCell id="Eb2iAlWk6COwyuMoocbI-21" value="SYM2 -&amp;gt; hash value = 7" style="text;html=1;align=center;verticalAlign=middle;whiteSpace=wrap;rounded=0;" parent="1" vertex="1">
          <mxGeometry x="252" y="450" width="190" height="30" as="geometry" />
        </mxCell>
        <mxCell id="Eb2iAlWk6COwyuMoocbI-22" value="SYM2" style="rounded=0;whiteSpace=wrap;html=1;" parent="1" vertex="1">
          <mxGeometry x="490" y="150" width="130" height="30" as="geometry" />
        </mxCell>
        <mxCell id="Eb2iAlWk6COwyuMoocbI-23" value="2" style="rounded=0;whiteSpace=wrap;html=1;" parent="1" vertex="1">
          <mxGeometry x="250" y="180" width="130" height="30" as="geometry" />
        </mxCell>
        <mxCell id="Eb2iAlWk6COwyuMoocbI-24" value="7" style="text;html=1;align=center;verticalAlign=middle;whiteSpace=wrap;rounded=0;" parent="1" vertex="1">
          <mxGeometry x="200" y="180" width="60" height="30" as="geometry" />
        </mxCell>
        <mxCell id="Eb2iAlWk6COwyuMoocbI-25" value="3 iteração" style="text;html=1;align=center;verticalAlign=middle;whiteSpace=wrap;rounded=0;" parent="1" vertex="1">
          <mxGeometry x="460" y="350" width="100" height="30" as="geometry" />
        </mxCell>
        <mxCell id="Eb2iAlWk6COwyuMoocbI-26" value="ptr = 3" style="text;html=1;align=center;verticalAlign=middle;whiteSpace=wrap;rounded=0;" parent="1" vertex="1">
          <mxGeometry x="480" y="390" width="60" height="30" as="geometry" />
        </mxCell>
        <mxCell id="Eb2iAlWk6COwyuMoocbI-27" value="next_ptr = 4" style="text;html=1;align=center;verticalAlign=middle;whiteSpace=wrap;rounded=0;" parent="1" vertex="1">
          <mxGeometry x="470" y="410" width="80" height="30" as="geometry" />
        </mxCell>
        <mxCell id="Eb2iAlWk6COwyuMoocbI-28" value="2" style="text;html=1;align=center;verticalAlign=middle;whiteSpace=wrap;rounded=0;" parent="1" vertex="1">
          <mxGeometry x="450" y="150" width="60" height="30" as="geometry" />
        </mxCell>
        <mxCell id="Eb2iAlWk6COwyuMoocbI-29" value="3" style="text;html=1;align=center;verticalAlign=middle;whiteSpace=wrap;rounded=0;" parent="1" vertex="1">
          <mxGeometry x="450" y="180" width="60" height="30" as="geometry" />
        </mxCell>
        <mxCell id="Eb2iAlWk6COwyuMoocbI-30" value="SYM3" style="rounded=0;whiteSpace=wrap;html=1;" parent="1" vertex="1">
          <mxGeometry x="490" y="180" width="130" height="30" as="geometry" />
        </mxCell>
        <mxCell id="Eb2iAlWk6COwyuMoocbI-31" value="Link = 0;" style="text;html=1;align=center;verticalAlign=middle;whiteSpace=wrap;rounded=0;" parent="1" vertex="1">
          <mxGeometry x="586" y="146" width="130" height="30" as="geometry" />
        </mxCell>
        <mxCell id="Eb2iAlWk6COwyuMoocbI-32" value="" style="endArrow=classic;html=1;rounded=0;exitX=1;exitY=0.5;exitDx=0;exitDy=0;" parent="1" edge="1">
          <mxGeometry width="50" height="50" relative="1" as="geometry">
            <mxPoint x="620" y="170" as="sourcePoint" />
            <mxPoint x="670" y="170" as="targetPoint" />
          </mxGeometry>
        </mxCell>
        <mxCell id="Eb2iAlWk6COwyuMoocbI-33" value="" style="endArrow=classic;html=1;rounded=0;exitX=1;exitY=0.5;exitDx=0;exitDy=0;edgeStyle=orthogonalEdgeStyle;curved=1;" parent="1" target="Eb2iAlWk6COwyuMoocbI-13" edge="1">
          <mxGeometry width="50" height="50" relative="1" as="geometry">
            <mxPoint x="620" y="194.76" as="sourcePoint" />
            <mxPoint x="670" y="194.76" as="targetPoint" />
            <Array as="points">
              <mxPoint x="600" y="195" />
            </Array>
          </mxGeometry>
        </mxCell>
        <mxCell id="Eb2iAlWk6COwyuMoocbI-34" value="Link = 1;" style="text;html=1;align=center;verticalAlign=middle;whiteSpace=wrap;rounded=0;" parent="1" vertex="1">
          <mxGeometry x="587" y="173" width="130" height="30" as="geometry" />
        </mxCell>
        <mxCell id="Eb2iAlWk6COwyuMoocbI-35" value="HASH" style="text;html=1;align=center;verticalAlign=middle;whiteSpace=wrap;rounded=0;" parent="1" vertex="1">
          <mxGeometry x="285" y="59" width="60" height="30" as="geometry" />
        </mxCell>
        <mxCell id="Eb2iAlWk6COwyuMoocbI-36" value="SYMBOL" style="text;html=1;align=center;verticalAlign=middle;whiteSpace=wrap;rounded=0;" parent="1" vertex="1">
          <mxGeometry x="526" y="59" width="60" height="30" as="geometry" />
        </mxCell>
        <mxCell id="Eb2iAlWk6COwyuMoocbI-37" value="SYM4 -&amp;gt; hash value = 5" style="text;html=1;align=center;verticalAlign=middle;whiteSpace=wrap;rounded=0;" parent="1" vertex="1">
          <mxGeometry x="585" y="450" width="190" height="30" as="geometry" />
        </mxCell>
        <mxCell id="Eb2iAlWk6COwyuMoocbI-38" value="4 iteração" style="text;html=1;align=center;verticalAlign=middle;whiteSpace=wrap;rounded=0;" parent="1" vertex="1">
          <mxGeometry x="630" y="350" width="100" height="30" as="geometry" />
        </mxCell>
        <mxCell id="Eb2iAlWk6COwyuMoocbI-39" value="ptr = 4" style="text;html=1;align=center;verticalAlign=middle;whiteSpace=wrap;rounded=0;" parent="1" vertex="1">
          <mxGeometry x="650" y="390" width="60" height="30" as="geometry" />
        </mxCell>
        <mxCell id="Eb2iAlWk6COwyuMoocbI-40" value="next_ptr = 5" style="text;html=1;align=center;verticalAlign=middle;whiteSpace=wrap;rounded=0;" parent="1" vertex="1">
          <mxGeometry x="640" y="410" width="80" height="30" as="geometry" />
        </mxCell>
        <mxCell id="Eb2iAlWk6COwyuMoocbI-42" value="SYM4" style="rounded=0;whiteSpace=wrap;html=1;" parent="1" vertex="1">
          <mxGeometry x="490" y="210" width="130" height="30" as="geometry" />
        </mxCell>
        <mxCell id="Eb2iAlWk6COwyuMoocbI-43" value="4" style="text;html=1;align=center;verticalAlign=middle;whiteSpace=wrap;rounded=0;" parent="1" vertex="1">
          <mxGeometry x="450" y="210" width="60" height="30" as="geometry" />
        </mxCell>
        <mxCell id="Eb2iAlWk6COwyuMoocbI-44" style="edgeStyle=orthogonalEdgeStyle;rounded=0;orthogonalLoop=1;jettySize=auto;html=1;exitX=1;exitY=0.5;exitDx=0;exitDy=0;entryX=0.75;entryY=0;entryDx=0;entryDy=0;curved=1;" parent="1" source="Eb2iAlWk6COwyuMoocbI-42" target="Eb2iAlWk6COwyuMoocbI-42" edge="1">
          <mxGeometry relative="1" as="geometry" />
        </mxCell>
        <mxCell id="Eb2iAlWk6COwyuMoocbI-45" value="Link = 3;" style="text;html=1;align=center;verticalAlign=middle;whiteSpace=wrap;rounded=0;" parent="1" vertex="1">
          <mxGeometry x="620" y="210" width="96" height="30" as="geometry" />
        </mxCell>
        <mxCell id="M2UrZuWYQ1DtIHliWYc_-2" value="next_ptr = 1" style="text;html=1;align=center;verticalAlign=middle;whiteSpace=wrap;rounded=0;" vertex="1" parent="1">
          <mxGeometry x="401" y="29" width="80" height="30" as="geometry" />
        </mxCell>
      </root>
    </mxGraphModel>
  </diagram>
</mxfile>
